<mxfile host="app.diagrams.net" modified="2023-11-13T11:20:12.310Z" agent="Mozilla/5.0 (Windows NT 10.0; Win64; x64; rv:109.0) Gecko/20100101 Firefox/119.0" etag="si0oBBpcowyYRZn8PGnV" version="22.1.0" type="device">
  <diagram id="IKdcczgC__YtXfX8UIwX" name="Page-1">
    <mxGraphModel dx="1242" dy="659" grid="1" gridSize="10" guides="1" tooltips="1" connect="1" arrows="1" fold="1" page="1" pageScale="1" pageWidth="827" pageHeight="1169" math="0" shadow="0">
      <root>
        <mxCell id="0" />
        <mxCell id="1" parent="0" />
        <mxCell id="m_R6_4stdK32f-bWhgOH-3" value="&lt;b&gt;Glücksspielautomat&lt;/b&gt;" style="html=1;fontStyle=0" parent="1" vertex="1">
          <mxGeometry x="360" y="160" width="160" height="60" as="geometry" />
        </mxCell>
        <mxCell id="m_R6_4stdK32f-bWhgOH-19" value="spielt" style="endArrow=none;html=1;endFill=0;verticalAlign=bottom;exitX=1;exitY=0.25;exitDx=0;exitDy=0;entryX=0;entryY=0.25;entryDx=0;entryDy=0;labelBackgroundColor=none;" parent="1" source="m_R6_4stdK32f-bWhgOH-1" target="m_R6_4stdK32f-bWhgOH-3" edge="1">
          <mxGeometry relative="1" as="geometry">
            <mxPoint x="120" y="240" as="sourcePoint" />
            <mxPoint x="290" y="180" as="targetPoint" />
          </mxGeometry>
        </mxCell>
        <mxCell id="m_R6_4stdK32f-bWhgOH-20" value="&lt;font style=&quot;font-size: 11px;&quot;&gt;&lt;font style=&quot;font-size: 12px;&quot;&gt;&lt;font style=&quot;font-size: 13px;&quot;&gt;&lt;font style=&quot;font-size: 14px;&quot;&gt;&lt;font style=&quot;font-size: 15px;&quot;&gt;&lt;font style=&quot;font-size: 16px;&quot;&gt;&lt;sub&gt;*&lt;/sub&gt;&lt;/font&gt;&lt;/font&gt;&lt;/font&gt;&lt;/font&gt;&lt;/font&gt;&lt;/font&gt;" style="resizable=0;html=1;align=left;verticalAlign=bottom;labelBackgroundColor=none;fontSize=10;spacingTop=0;spacingLeft=4;spacing=0;spacingBottom=-4;" parent="m_R6_4stdK32f-bWhgOH-19" connectable="0" vertex="1">
          <mxGeometry x="-1" relative="1" as="geometry" />
        </mxCell>
        <mxCell id="m_R6_4stdK32f-bWhgOH-21" value="&lt;font style=&quot;font-size: 11px;&quot;&gt;&lt;font style=&quot;font-size: 12px;&quot;&gt;&lt;font style=&quot;font-size: 13px;&quot;&gt;&lt;font style=&quot;font-size: 14px;&quot;&gt;&lt;font style=&quot;font-size: 15px;&quot;&gt;&lt;font style=&quot;font-size: 16px;&quot;&gt;&lt;sub&gt;*&lt;/sub&gt;&lt;/font&gt;&lt;/font&gt;&lt;/font&gt;&lt;/font&gt;&lt;/font&gt;&lt;/font&gt;" style="resizable=0;html=1;align=right;verticalAlign=bottom;labelBackgroundColor=none;fontSize=10;spacingLeft=0;spacing=0;spacingBottom=-4;spacingRight=4;spacingTop=0;" parent="m_R6_4stdK32f-bWhgOH-19" connectable="0" vertex="1">
          <mxGeometry x="1" relative="1" as="geometry" />
        </mxCell>
        <mxCell id="m_R6_4stdK32f-bWhgOH-1" value="&lt;b&gt;Person&lt;/b&gt;" style="html=1;fontStyle=0" parent="1" vertex="1">
          <mxGeometry x="40" y="160" width="160" height="60" as="geometry" />
        </mxCell>
        <mxCell id="T6Ai0_ayIKamRRYhBH8k-1" value="" style="triangle;whiteSpace=wrap;html=1;dashed=0;direction=north;fillColor=#000000;aspect=fixed;rotation=90;" parent="1" vertex="1">
          <mxGeometry x="301" y="162" width="4.5" height="9" as="geometry" />
        </mxCell>
        <mxCell id="-STVFB_1zqTISouC3BHJ-4" value="" style="triangle;whiteSpace=wrap;html=1;dashed=0;direction=north;fillColor=#000000;aspect=fixed;rotation=90;" parent="1" vertex="1">
          <mxGeometry x="304" y="209" width="4.5" height="9" as="geometry" />
        </mxCell>
        <mxCell id="-STVFB_1zqTISouC3BHJ-5" value="wartet" style="endArrow=none;html=1;endFill=0;verticalAlign=top;exitX=1;exitY=0.75;exitDx=0;exitDy=0;entryX=0;entryY=0.75;entryDx=0;entryDy=0;spacing=-3;labelBackgroundColor=none;" parent="1" source="m_R6_4stdK32f-bWhgOH-1" target="m_R6_4stdK32f-bWhgOH-3" edge="1">
          <mxGeometry relative="1" as="geometry">
            <mxPoint x="200" y="270" as="sourcePoint" />
            <mxPoint x="360" y="270" as="targetPoint" />
            <mxPoint as="offset" />
          </mxGeometry>
        </mxCell>
        <mxCell id="-STVFB_1zqTISouC3BHJ-6" value="1..&lt;sub&gt;&lt;font style=&quot;font-size: 9px;&quot;&gt;&lt;font style=&quot;font-size: 10px;&quot;&gt;&lt;font style=&quot;font-size: 11px;&quot;&gt;&lt;font style=&quot;font-size: 12px;&quot;&gt;&lt;font style=&quot;font-size: 13px;&quot;&gt;&lt;font style=&quot;font-size: 14px;&quot;&gt;&lt;font style=&quot;font-size: 15px;&quot;&gt;&lt;font style=&quot;font-size: 14px;&quot;&gt;&lt;font style=&quot;font-size: 13px;&quot;&gt;*&lt;/font&gt;&lt;/font&gt;&lt;/font&gt;&lt;/font&gt;&lt;/font&gt;&lt;/font&gt;&lt;/font&gt;&lt;/font&gt;&lt;/font&gt;&lt;/sub&gt;" style="resizable=0;html=1;align=left;verticalAlign=bottom;labelBackgroundColor=none;fontSize=10;spacingTop=0;spacingLeft=4;spacing=0;spacingBottom=-2;" parent="-STVFB_1zqTISouC3BHJ-5" connectable="0" vertex="1">
          <mxGeometry x="-1" relative="1" as="geometry" />
        </mxCell>
        <mxCell id="-STVFB_1zqTISouC3BHJ-7" value="&lt;font style=&quot;font-size: 11px;&quot;&gt;&lt;font style=&quot;font-size: 12px;&quot;&gt;&lt;font style=&quot;font-size: 13px;&quot;&gt;&lt;font style=&quot;font-size: 14px;&quot;&gt;&lt;font style=&quot;font-size: 15px;&quot;&gt;&lt;font style=&quot;font-size: 16px;&quot;&gt;&lt;sub&gt;*&lt;/sub&gt;&lt;/font&gt;&lt;/font&gt;&lt;/font&gt;&lt;/font&gt;&lt;/font&gt;&lt;/font&gt;" style="resizable=0;html=1;align=right;verticalAlign=bottom;labelBackgroundColor=none;fontSize=10;spacingLeft=0;spacing=0;spacingBottom=-4;spacingRight=4;spacingTop=0;" parent="-STVFB_1zqTISouC3BHJ-5" connectable="0" vertex="1">
          <mxGeometry x="1" relative="1" as="geometry" />
        </mxCell>
        <mxCell id="-STVFB_1zqTISouC3BHJ-8" value="&lt;font style=&quot;font-size: 14px;&quot;&gt;&lt;font style=&quot;font-size: 15px;&quot;&gt;&lt;font style=&quot;font-size: 16px;&quot;&gt;Rolle&lt;/font&gt;&lt;/font&gt;&lt;/font&gt;" style="text;html=1;strokeColor=none;fillColor=none;align=center;verticalAlign=middle;whiteSpace=wrap;rounded=0;fontSize=13;fontColor=#006666;" parent="1" vertex="1">
          <mxGeometry x="254" y="70" width="51.5" height="20" as="geometry" />
        </mxCell>
        <mxCell id="-STVFB_1zqTISouC3BHJ-10" value="" style="endArrow=classic;html=1;rounded=0;fontSize=16;fontColor=#006666;exitX=1;exitY=1;exitDx=0;exitDy=0;entryX=0.25;entryY=0;entryDx=0;entryDy=0;strokeColor=#006666;" parent="1" source="-STVFB_1zqTISouC3BHJ-8" target="-STVFB_1zqTISouC3BHJ-11" edge="1">
          <mxGeometry width="50" height="50" relative="1" as="geometry">
            <mxPoint x="330" y="100" as="sourcePoint" />
            <mxPoint x="380" y="90" as="targetPoint" />
          </mxGeometry>
        </mxCell>
        <mxCell id="-STVFB_1zqTISouC3BHJ-11" value="&lt;font style=&quot;font-size: 12px;&quot;&gt;&lt;font style=&quot;font-size: 12px;&quot;&gt;&lt;font style=&quot;font-size: 12px;&quot;&gt;&lt;font style=&quot;font-size: 12px;&quot;&gt;spielgerät&lt;/font&gt;&lt;/font&gt;&lt;/font&gt;&lt;/font&gt;" style="text;html=1;strokeColor=none;fillColor=none;align=center;verticalAlign=middle;whiteSpace=wrap;rounded=0;fontSize=12;fontColor=#000000;" parent="1" vertex="1">
          <mxGeometry x="330" y="140" width="60" height="20" as="geometry" />
        </mxCell>
        <mxCell id="-STVFB_1zqTISouC3BHJ-12" value="&lt;div style=&quot;font-size: 12px;&quot;&gt;spieler&lt;/div&gt;" style="text;html=1;strokeColor=none;fillColor=none;align=center;verticalAlign=middle;whiteSpace=wrap;rounded=0;fontSize=12;fontColor=#000000;" parent="1" vertex="1">
          <mxGeometry x="170" y="140" width="60" height="20" as="geometry" />
        </mxCell>
        <mxCell id="-STVFB_1zqTISouC3BHJ-14" value="" style="endArrow=classic;html=1;rounded=0;fontSize=16;fontColor=#006666;exitX=0;exitY=1;exitDx=0;exitDy=0;entryX=0.75;entryY=0;entryDx=0;entryDy=0;strokeColor=#006666;" parent="1" source="-STVFB_1zqTISouC3BHJ-8" target="-STVFB_1zqTISouC3BHJ-12" edge="1">
          <mxGeometry width="50" height="50" relative="1" as="geometry">
            <mxPoint x="314" y="100" as="sourcePoint" />
            <mxPoint x="345" y="150" as="targetPoint" />
          </mxGeometry>
        </mxCell>
        <mxCell id="-STVFB_1zqTISouC3BHJ-15" value="techniker" style="text;html=1;strokeColor=none;fillColor=none;align=center;verticalAlign=middle;whiteSpace=wrap;rounded=0;fontSize=12;fontColor=#000000;" parent="1" vertex="1">
          <mxGeometry x="170" y="220" width="60" height="20" as="geometry" />
        </mxCell>
        <mxCell id="-STVFB_1zqTISouC3BHJ-16" value="wartungsobjekt" style="text;html=1;strokeColor=none;fillColor=none;align=center;verticalAlign=middle;whiteSpace=wrap;rounded=0;fontSize=12;fontColor=#000000;" parent="1" vertex="1">
          <mxGeometry x="330" y="220" width="60" height="20" as="geometry" />
        </mxCell>
        <mxCell id="-STVFB_1zqTISouC3BHJ-17" value="&lt;font style=&quot;font-size: 14px;&quot;&gt;&lt;font style=&quot;font-size: 15px;&quot;&gt;&lt;font style=&quot;font-size: 16px;&quot;&gt;Rolle&lt;/font&gt;&lt;/font&gt;&lt;/font&gt;" style="text;html=1;strokeColor=none;fillColor=none;align=center;verticalAlign=middle;whiteSpace=wrap;rounded=0;fontSize=13;fontColor=#006666;" parent="1" vertex="1">
          <mxGeometry x="254" y="290" width="51.5" height="20" as="geometry" />
        </mxCell>
        <mxCell id="-STVFB_1zqTISouC3BHJ-18" value="" style="endArrow=classic;html=1;rounded=0;fontSize=16;fontColor=#006666;strokeColor=#006666;exitX=1;exitY=0;exitDx=0;exitDy=0;entryX=0.25;entryY=1;entryDx=0;entryDy=0;" parent="1" source="-STVFB_1zqTISouC3BHJ-17" target="-STVFB_1zqTISouC3BHJ-16" edge="1">
          <mxGeometry width="50" height="50" relative="1" as="geometry">
            <mxPoint x="320" y="240" as="sourcePoint" />
            <mxPoint x="370" y="300" as="targetPoint" />
          </mxGeometry>
        </mxCell>
        <mxCell id="-STVFB_1zqTISouC3BHJ-19" value="" style="endArrow=classic;html=1;rounded=0;fontSize=16;fontColor=#006666;entryX=0.75;entryY=1;entryDx=0;entryDy=0;strokeColor=#006666;exitX=0;exitY=0;exitDx=0;exitDy=0;" parent="1" source="-STVFB_1zqTISouC3BHJ-17" target="-STVFB_1zqTISouC3BHJ-15" edge="1">
          <mxGeometry width="50" height="50" relative="1" as="geometry">
            <mxPoint x="180" y="280" as="sourcePoint" />
            <mxPoint x="235" y="160" as="targetPoint" />
          </mxGeometry>
        </mxCell>
      </root>
    </mxGraphModel>
  </diagram>
</mxfile>
